<?xml version="1.0" encoding="iso-8859-1"?>
<!-- Generator: Adobe Illustrator 19.0.0, SVG Export Plug-In . SVG Version: 6.00 Build 0)  -->
<svg xmlns="http://www.w3.org/2000/svg" xmlns:xlink="http://www.w3.org/1999/xlink" version="1.1" id="Layer_1" x="0px" y="0px" viewBox="0 0 512 512" style="enable-background:new 0 0 512 512;" xml:space="preserve" width="512px" height="512px">
<g>
	<g>
		<path d="M509.656,233.648C479.503,118.469,375.195,38.028,256,38.028S32.497,118.469,2.343,233.648L0,242.599l154.947,137.398    v93.974h202.106v-93.974L512,242.599L509.656,233.648z M185.083,443.834v-37.115l41.856,37.115H185.083z M326.917,443.834h-41.856    l41.856-37.115V443.834z M256,429.326L33.991,232.464c11.713-38.49,32.91-72.254,60.596-99.008l82.625,186.406l27.55-12.212    l-86.184-194.436c34.978-25.683,77.188-41.637,122.354-44.556v231.335H256h15.068V68.656    c45.166,2.919,87.376,18.873,122.354,44.556l-86.184,194.437l27.55,12.212l82.625-186.406    c27.686,26.754,48.883,60.518,60.595,99.008L256,429.326z" fill="white"/>
	</g>
</g>
<g>
</g>
<g>
</g>
<g>
</g>
<g>
</g>
<g>
</g>
<g>
</g>
<g>
</g>
<g>
</g>
<g>
</g>
<g>
</g>
<g>
</g>
<g>
</g>
<g>
</g>
<g>
</g>
<g>
</g>
</svg>
